<?xml version="1.0"?>
<svg xmlns="http://www.w3.org/2000/svg" viewBox="0 0 64 64" width="512" height="512"><g id="Outline"><g><path d="M61,40a1,1,0,0,0-1,1v6a1,1,0,0,1-1,1H5a1,1,0,0,1-1-1V21a1,1,0,0,0-2,0V47a3,3,0,0,0,3,3H23.38l-3,6H14a1,1,0,0,0,0,2H50a1,1,0,0,1,1,1v1H12a1,1,0,0,0,0,2H52a1,1,0,0,0,1-1V59a3,3,0,0,0-3-3H43.62l-3-6H59a3,3,0,0,0,3-3V41A1,1,0,0,0,61,40ZM41.38,56H22.62l3-6H38.38Z"/><path d="M59,6H5A3,3,0,0,0,2,9v8a1,1,0,0,0,2,0V9A1,1,0,0,1,5,8H59a1,1,0,0,1,1,1V37a1,1,0,0,0,2,0V9A3,3,0,0,0,59,6Z"/><path d="M21,30a3,3,0,0,0-3,3,2.84,2.84,0,0,0,.38,1.42l-5.23,5.81A3,3,0,0,0,12,40a3,3,0,1,0,3,3,2.94,2.94,0,0,0-.37-1.42l5.22-5.81A3,3,0,0,0,21,36a3.06,3.06,0,0,0,1.44-.38l4.78,4.25A3,3,0,0,0,30,44a1,1,0,0,0,0-2,1,1,0,1,1,1-1,1,1,0,0,0,2,0,3,3,0,0,0-.57-1.75l5.79-8.37A2.89,2.89,0,0,0,39,31a3,3,0,0,0,1.29-.3l3,3a3,3,0,1,0,5.24-.29L53,27.82A2.93,2.93,0,0,0,54,28a3,3,0,0,0,0-6,1,1,0,0,0,0,2,1,1,0,1,1-1,1,1,1,0,0,0-2,0,3,3,0,0,0,.46,1.58L47,32.18A2.93,2.93,0,0,0,46,32a3,3,0,0,0-1.29.3l-3-3A3,3,0,1,0,36,28a3,3,0,0,0,.57,1.75l-5.79,8.37A2.89,2.89,0,0,0,30,38a3.06,3.06,0,0,0-1.44.38l-4.78-4.25A3,3,0,0,0,21,30Zm26,5a1,1,0,1,1-1-1A1,1,0,0,1,47,35Zm-8-8a1,1,0,1,1-1,1A1,1,0,0,1,39,27ZM12,44a1,1,0,1,1,1-1A1,1,0,0,1,12,44Zm8-11a1,1,0,1,1,1,1A1,1,0,0,1,20,33Z"/><path d="M14,10a7,7,0,1,0,7,7A7,7,0,0,0,14,10Zm4.9,6H15V12.1A5,5,0,0,1,18.9,16ZM14,22a5,5,0,0,1-1-9.9V17a1,1,0,0,0,1,1h4.9A5,5,0,0,1,14,22Z"/><circle cx="25" cy="16" r="1"/><circle cx="29" cy="16" r="1"/><circle cx="33" cy="16" r="1"/><circle cx="37" cy="16" r="1"/><circle cx="25" cy="20" r="1"/><circle cx="29" cy="20" r="1"/><circle cx="33" cy="20" r="1"/><circle cx="37" cy="20" r="1"/><circle cx="41" cy="20" r="1"/><circle cx="45" cy="20" r="1"/><circle cx="25" cy="12" r="1"/><circle cx="29" cy="12" r="1"/><path d="M58,41a1,1,0,0,0-1-1H52a1,1,0,0,0,0,2h5A1,1,0,0,0,58,41Z"/><path d="M47,44a1,1,0,0,0,0,2h9a1,1,0,0,0,0-2Z"/><path d="M56,10H44a1,1,0,0,0-1,1v4a1,1,0,0,0,1,1H56a1,1,0,0,0,1-1V11A1,1,0,0,0,56,10ZM45,12h2v2H45Zm4,0h2v2H49Zm6,2H53V12h2Z"/></g></g></svg>
